<svg id="Calque_1" data-name="Calque 1" xmlns="http://www.w3.org/2000/svg" xmlns:xlink="http://www.w3.org/1999/xlink" viewBox="0 0 69.91 40.68"><defs><style>.cls-1{fill:none;}.cls-2{clip-path:url(#clip-path);}.cls-3{fill:#601827;}</style><clipPath id="clip-path" transform="translate(-12.15 -9.79)"><rect class="cls-1" x="12.15" y="9.79" width="69.91" height="40.68"/></clipPath></defs><title>Points</title><g class="cls-2"><path class="cls-3" d="M15.58,11.51a1.72,1.72,0,1,1-1.72-1.72,1.72,1.72,0,0,1,1.72,1.72" transform="translate(-12.15 -9.79)"/><path class="cls-3" d="M25.08,11.51a1.72,1.72,0,1,1-1.72-1.72,1.72,1.72,0,0,1,1.72,1.72" transform="translate(-12.15 -9.79)"/><path class="cls-3" d="M34.57,11.51a1.72,1.72,0,1,1-1.71-1.72,1.71,1.71,0,0,1,1.71,1.72" transform="translate(-12.15 -9.79)"/><path class="cls-3" d="M44.07,11.51a1.72,1.72,0,1,1-1.72-1.72,1.72,1.72,0,0,1,1.72,1.72" transform="translate(-12.15 -9.79)"/><path class="cls-3" d="M53.57,11.51a1.72,1.72,0,1,1-1.72-1.72,1.72,1.72,0,0,1,1.72,1.72" transform="translate(-12.15 -9.79)"/><path class="cls-3" d="M63.06,11.51a1.72,1.72,0,1,1-1.72-1.72,1.72,1.72,0,0,1,1.72,1.72" transform="translate(-12.15 -9.79)"/><path class="cls-3" d="M72.56,11.51a1.72,1.72,0,1,1-1.72-1.72,1.72,1.72,0,0,1,1.72,1.72" transform="translate(-12.15 -9.79)"/><path class="cls-3" d="M82.05,11.51a1.72,1.72,0,1,1-1.72-1.72,1.72,1.72,0,0,1,1.72,1.72" transform="translate(-12.15 -9.79)"/><path class="cls-3" d="M15.58,20.82a1.72,1.72,0,1,1-1.72-1.72,1.72,1.72,0,0,1,1.72,1.72" transform="translate(-12.15 -9.79)"/><path class="cls-3" d="M25.08,20.82a1.72,1.72,0,1,1-1.72-1.72,1.72,1.72,0,0,1,1.72,1.72" transform="translate(-12.15 -9.79)"/><path class="cls-3" d="M34.57,20.82a1.72,1.72,0,1,1-1.71-1.72,1.71,1.71,0,0,1,1.71,1.72" transform="translate(-12.15 -9.79)"/><path class="cls-3" d="M44.07,20.82a1.72,1.72,0,1,1-1.72-1.72,1.72,1.72,0,0,1,1.72,1.72" transform="translate(-12.15 -9.79)"/><path class="cls-3" d="M53.57,20.82a1.72,1.72,0,1,1-1.72-1.72,1.72,1.72,0,0,1,1.72,1.72" transform="translate(-12.15 -9.79)"/><path class="cls-3" d="M63.06,20.82a1.72,1.72,0,1,1-1.72-1.72,1.72,1.72,0,0,1,1.72,1.72" transform="translate(-12.15 -9.79)"/><path class="cls-3" d="M72.56,20.82a1.72,1.72,0,1,1-1.72-1.72,1.72,1.72,0,0,1,1.72,1.72" transform="translate(-12.15 -9.79)"/><path class="cls-3" d="M82.05,20.82a1.72,1.72,0,1,1-1.72-1.72,1.72,1.72,0,0,1,1.72,1.72" transform="translate(-12.15 -9.79)"/><path class="cls-3" d="M15.58,30.12a1.72,1.72,0,1,1-1.72-1.71,1.72,1.72,0,0,1,1.72,1.71" transform="translate(-12.15 -9.79)"/><path class="cls-3" d="M25.08,30.12a1.72,1.72,0,1,1-1.72-1.71,1.72,1.72,0,0,1,1.72,1.71" transform="translate(-12.15 -9.79)"/><path class="cls-3" d="M34.57,30.12a1.72,1.72,0,1,1-1.71-1.71,1.71,1.71,0,0,1,1.71,1.71" transform="translate(-12.15 -9.79)"/><path class="cls-3" d="M44.07,30.12a1.72,1.72,0,1,1-1.72-1.71,1.72,1.72,0,0,1,1.72,1.71" transform="translate(-12.15 -9.79)"/><path class="cls-3" d="M53.57,30.12a1.72,1.72,0,1,1-1.72-1.71,1.72,1.72,0,0,1,1.72,1.71" transform="translate(-12.15 -9.79)"/><path class="cls-3" d="M63.06,30.12a1.72,1.72,0,1,1-1.72-1.71,1.72,1.72,0,0,1,1.72,1.71" transform="translate(-12.15 -9.79)"/><path class="cls-3" d="M72.56,30.12a1.72,1.72,0,1,1-1.72-1.71,1.72,1.72,0,0,1,1.72,1.71" transform="translate(-12.15 -9.79)"/><path class="cls-3" d="M82.05,30.12a1.72,1.72,0,1,1-1.72-1.71,1.72,1.72,0,0,1,1.72,1.71" transform="translate(-12.15 -9.79)"/><path class="cls-3" d="M15.58,39.43a1.72,1.72,0,1,1-1.72-1.72,1.72,1.72,0,0,1,1.72,1.72" transform="translate(-12.15 -9.79)"/><path class="cls-3" d="M25.08,39.43a1.72,1.72,0,1,1-1.72-1.72,1.72,1.72,0,0,1,1.72,1.72" transform="translate(-12.15 -9.79)"/><path class="cls-3" d="M34.57,39.43a1.72,1.72,0,1,1-1.71-1.72,1.71,1.71,0,0,1,1.71,1.72" transform="translate(-12.15 -9.79)"/><path class="cls-3" d="M44.07,39.43a1.72,1.72,0,1,1-1.72-1.72,1.72,1.72,0,0,1,1.72,1.72" transform="translate(-12.15 -9.79)"/><path class="cls-3" d="M53.57,39.43a1.72,1.72,0,1,1-1.72-1.72,1.72,1.72,0,0,1,1.72,1.72" transform="translate(-12.15 -9.79)"/><path class="cls-3" d="M63.06,39.43a1.72,1.72,0,1,1-1.72-1.72,1.72,1.72,0,0,1,1.72,1.72" transform="translate(-12.15 -9.79)"/><path class="cls-3" d="M72.56,39.43a1.72,1.72,0,1,1-1.72-1.72,1.72,1.72,0,0,1,1.72,1.72" transform="translate(-12.15 -9.79)"/><path class="cls-3" d="M82.05,39.43a1.72,1.72,0,1,1-1.72-1.72,1.72,1.72,0,0,1,1.72,1.72" transform="translate(-12.15 -9.79)"/><path class="cls-3" d="M15.58,48.74A1.72,1.72,0,1,1,13.86,47a1.72,1.72,0,0,1,1.72,1.72" transform="translate(-12.15 -9.79)"/><path class="cls-3" d="M25.08,48.74A1.72,1.72,0,1,1,23.36,47a1.72,1.72,0,0,1,1.72,1.72" transform="translate(-12.15 -9.79)"/><path class="cls-3" d="M34.57,48.74A1.72,1.72,0,1,1,32.86,47a1.71,1.71,0,0,1,1.71,1.72" transform="translate(-12.15 -9.79)"/><path class="cls-3" d="M44.07,48.74A1.72,1.72,0,1,1,42.35,47a1.72,1.72,0,0,1,1.72,1.72" transform="translate(-12.15 -9.79)"/><path class="cls-3" d="M53.57,48.74A1.72,1.72,0,1,1,51.85,47a1.72,1.72,0,0,1,1.72,1.72" transform="translate(-12.15 -9.79)"/><path class="cls-3" d="M63.06,48.74A1.72,1.72,0,1,1,61.34,47a1.72,1.72,0,0,1,1.72,1.72" transform="translate(-12.15 -9.79)"/><path class="cls-3" d="M72.56,48.74A1.72,1.72,0,1,1,70.84,47a1.72,1.72,0,0,1,1.72,1.72" transform="translate(-12.15 -9.79)"/><path class="cls-3" d="M82.05,48.74A1.72,1.72,0,1,1,80.33,47a1.72,1.72,0,0,1,1.72,1.72" transform="translate(-12.15 -9.79)"/></g></svg>