<svg id="Calque_1" data-name="Calque 1" xmlns="http://www.w3.org/2000/svg" xmlns:xlink="http://www.w3.org/1999/xlink" viewBox="0 0 84.96 32.52"><defs><style>.cls-1,.cls-3{fill:none;}.cls-2{clip-path:url(#clip-path);}.cls-3{stroke:#5f1827;stroke-miterlimit:10;stroke-width:0.56px;}</style><clipPath id="clip-path" transform="translate(-4.62 -13.87)"><rect class="cls-1" x="4.62" y="13.87" width="84.96" height="32.51"/></clipPath></defs><title>vagues</title><g class="cls-2"><path class="cls-3" d="M4.69,38.93c3.45-.93,7.69-1.38,11.7.38,4.2,1.85,4.94,4.71,8.3,4.91,4.51.26,5.81-4.8,10.18-4.53s5,5.22,9.05,5.28c4.24.06,5.35-5.35,9.48-5.28s5,5.71,9.38,6c4.68.35,6-5.87,10.94-5.65,3.65.16,4.62,3.55,10.94,5.28a22.06,22.06,0,0,0,4.91.75M4.69,31c3.45-.94,7.69-1.39,11.7.37,4.2,1.85,4.94,4.71,8.3,4.91,4.51.26,5.81-4.8,10.18-4.53s5,5.23,9.05,5.28c4.24.06,5.35-5.35,9.48-5.28s5,5.71,9.38,6c4.68.34,6-5.88,10.94-5.66,3.65.16,4.62,3.55,10.94,5.28a22.06,22.06,0,0,0,4.91.75M4.69,23c3.45-.94,7.69-1.38,11.7.37,4.2,1.85,4.94,4.71,8.3,4.91,4.51.26,5.81-4.8,10.18-4.53s5,5.23,9.05,5.28c4.24.06,5.35-5.35,9.48-5.28s5,5.71,9.38,6c4.68.34,6-5.88,10.94-5.66,3.65.16,4.62,3.55,10.94,5.28a21.48,21.48,0,0,0,4.91.75M4.69,15c3.45-.94,7.69-1.38,11.7.38,4.2,1.84,4.94,4.71,8.3,4.9,4.51.26,5.81-4.79,10.18-4.53s5,5.23,9.05,5.28c4.24.06,5.35-5.35,9.48-5.28s5,5.71,9.38,6c4.68.35,6-5.88,10.94-5.66,3.65.16,4.62,3.55,10.94,5.28a22.2,22.2,0,0,0,4.91.76" transform="translate(-4.62 -13.87)"/></g></svg>